<svg xmlns="http://www.w3.org/2000/svg" version="1.0" width="606.000000pt" height="576.000000pt" viewBox="0 0 606.000000 576.000000" preserveAspectRatio="xMidYMid meet">

<g transform="translate(0.000000,576.000000) scale(0.100000,-0.100000)" fill="#00A8C6" stroke="none">
<path d="M2843 4700 c-492 -62 -954 -309 -1260 -673 -231 -276 -374 -584 -439 -947 -21 -120 -29 -393 -15 -520 52 -453 242 -852 560 -1171 275 -275 620 -460 1011 -540 103 -21 141 -24 360 -24 275 0 356 10 560 72 631 189 1120 673 1310 1298 56 182 80 352 80 566 0 323 -62 593 -197 864 -278 558 -787 939 -1408 1056 -125 24 -439 34 -562 19z m512 -239 c271 -48 502 -145 725 -304 113 -81 299 -269 382 -387 134 -188 241 -437 290 -670 29 -142 36 -431 13 -575 -111 -715 -629 -1273 -1326 -1429 -125 -28 -360 -49 -455 -41 -393 35 -688 143 -964 355 -466 359 -724 958 -660 1535 30 263 121 528 256 742 231 365 613 642 1029 747 87 22 134 29 305 50 71 9 298 -4 405 -23z" fill="#00A8C6"/>
<path d="M2955 4423 c-675 -56 -1235 -482 -1455 -1108 -71 -204 -95 -368 -87 -607 9 -265 55 -447 172 -683 84 -168 174 -294 305 -425 258 -257 553 -409 915 -472 158 -27 435 -21 590 12 191 41 404 126 562 227 282 178 532 478 645 773 94 244 122 392 121 640 -2 448 -177 858 -499 1172 -99 96 -135 125 -256 205 -294 194 -676 294 -1013 266z m321 -731 c22 -14 35 -54 36 -105 0 -28 6 -60 14 -71 20 -29 17 -46 -11 -77 l-26 -26 66 -7 c73 -7 157 -35 186 -62 29 -26 24 -68 -13 -105 -33 -33 -162 -99 -194 -99 -11 0 -15 -5 -11 -17 4 -10 18 -52 33 -93 30 -86 34 -164 10 -188 -23 -23 -78 -18 -132 12 -26 14 -59 26 -74 26 -31 0 -57 24 -62 59 -3 21 -8 17 -53 -39 -93 -117 -174 -152 -212 -93 -19 29 -24 132 -10 213 l8 46 -82 12 c-193 28 -241 112 -110 192 26 16 53 42 60 56 11 25 15 26 56 20 25 -3 45 -2 45 3 0 5 -11 39 -25 76 -14 37 -28 92 -31 123 -5 49 -3 61 16 85 20 25 27 28 59 22 47 -9 77 -25 153 -84 l64 -48 44 55 c77 97 155 142 196 114z m-999 -1174 c14 -18 21 -47 47 -198 23 -134 22 -160 -9 -160 -14 0 -25 22 -25 51 0 16 -7 19 -45 19 -42 0 -45 -2 -53 -32 -6 -23 -14 -33 -28 -33 -24 0 -23 38 4 150 49 198 56 214 88 215 6 0 16 -6 21 -12z m1201 -22 c-2 -16 -11 -22 -40 -24 -21 -2 -39 -6 -39 -10 -1 -4 -4 -72 -8 -152 -6 -136 -7 -145 -26 -145 -19 0 -20 8 -23 152 l-3 152 -37 3 c-29 2 -37 7 -37 23 0 18 8 20 95 25 113 6 122 4 118 -24z m273 10 c6 -46 -4 -333 -11 -340 -5 -5 -16 -6 -24 -3 -13 5 -16 24 -16 97 l0 90 -45 0 -45 0 0 -79 c0 -44 -3 -86 -6 -95 -9 -23 -33 -20 -43 7 -10 25 -7 309 3 326 4 6 16 11 27 11 17 0 19 -7 19 -57 l0 -58 45 -3 45 -3 0 54 c0 29 5 58 11 64 13 13 38 6 40 -11z m147 -128 c2 -135 4 -148 22 -158 14 -8 26 -8 40 0 19 10 20 21 20 149 0 106 3 141 14 150 11 9 18 8 31 -5 14 -15 16 -37 13 -160 -3 -163 -11 -182 -84 -190 -89 -11 -114 34 -113 206 1 127 10 163 37 158 15 -3 17 -20 20 -150z m369 118 c26 -30 29 -68 10 -106 -11 -22 -10 -29 10 -59 33 -49 31 -105 -5 -141 -33 -32 -88 -46 -129 -33 l-28 10 -3 168 c-1 93 0 176 3 183 4 11 19 13 62 10 46 -4 61 -10 80 -32z m-2366 -41 c18 -36 36 -62 40 -57 4 4 21 32 36 62 23 43 35 56 56 58 26 3 27 2 28 -50 2 -202 -3 -284 -16 -298 -29 -28 -37 3 -36 127 l1 118 -30 -52 c-17 -29 -36 -53 -43 -53 -7 0 -24 19 -38 43 l-24 42 -3 -107 c-2 -77 -7 -109 -17 -118 -8 -6 -19 -9 -25 -5 -11 7 -15 337 -3 348 20 21 43 3 74 -58z m690 36 c38 -39 41 -109 6 -145 -23 -23 -23 -23 -6 -64 10 -23 21 -57 25 -77 6 -31 4 -35 -15 -35 -12 0 -24 6 -26 13 -40 114 -47 127 -70 127 -23 0 -24 -4 -27 -72 -3 -67 -5 -73 -25 -76 -16 -2 -23 2 -23 12 -1 9 -1 61 -1 116 0 55 0 129 1 165 l0 65 66 0 c59 0 68 -3 95 -29z m179 -45 l5 -68 45 71 c33 52 51 70 68 70 31 1 28 -22 -9 -80 l-30 -48 30 -96 c34 -104 36 -121 21 -130 -20 -12 -37 15 -61 95 -13 44 -26 80 -29 80 -16 0 -40 -64 -40 -108 0 -58 -19 -83 -46 -61 -14 12 -15 33 -9 174 4 88 9 164 12 168 3 4 12 7 21 5 13 -2 18 -18 22 -72z m405 49 c0 -18 -8 -20 -68 -23 l-68 -3 3 -32 c3 -31 4 -32 56 -35 48 -3 52 -5 52 -28 0 -23 -3 -24 -55 -24 l-56 0 3 -67 3 -68 65 0 c63 0 65 -1 65 -25 0 -25 -1 -25 -92 -28 l-93 -3 0 181 0 181 93 -3 c84 -3 92 -5 92 -23z m-1074 -600 c6 19 8 18 17 -5 8 -18 11 -20 11 -7 1 9 6 17 12 17 6 0 8 -9 5 -20 -20 -70 -17 -66 -32 -45 -12 17 -14 17 -14 2 0 -29 -17 -19 -24 14 -3 17 -6 39 -6 48 1 13 3 12 12 -4 11 -19 11 -19 19 0z m189 6 c0 -5 -6 -12 -12 -15 -10 -5 -10 -7 1 -12 11 -5 11 -8 0 -16 -11 -7 -11 -11 -1 -15 19 -8 14 -23 -8 -23 -17 0 -20 7 -20 38 0 21 3 42 7 45 10 10 33 8 33 -2z m134 0 c4 -5 0 -12 -6 -15 -10 -5 -10 -7 1 -12 11 -5 11 -8 0 -14 -10 -7 -10 -11 0 -24 12 -14 10 -16 -8 -16 -18 0 -21 6 -21 45 0 33 4 45 14 45 8 0 17 -4 20 -9z m113 -43 c-1 -22 -8 -34 -19 -36 -15 -3 -18 4 -18 43 0 42 2 45 19 35 14 -7 19 -19 18 -42z m150 39 c14 17 14 17 7 -2 -4 -11 -9 -32 -12 -47 -6 -37 -22 -36 -22 1 0 17 -5 33 -10 36 -6 4 -7 11 -4 17 4 7 10 4 16 -6 9 -16 11 -16 25 1z m73 4 c0 -5 -6 -12 -12 -15 -10 -5 -10 -7 1 -12 11 -5 11 -8 0 -16 -11 -7 -11 -11 -1 -15 19 -8 14 -23 -8 -23 -17 0 -20 7 -20 38 0 21 3 42 7 45 10 10 33 8 33 -2z m57 1 c6 -4 11 -24 10 -44 -1 -28 -4 -35 -13 -27 -8 7 -14 6 -17 -3 -3 -7 -6 8 -6 35 -1 47 3 53 26 39z m72 -13 c-11 -6 -10 -11 3 -26 20 -23 13 -43 -15 -42 -17 1 -18 2 -4 6 21 6 21 12 1 35 -14 14 -14 20 -4 33 7 8 17 12 22 9 6 -4 5 -10 -3 -15z m204 -4 c3 20 4 13 5 -20 1 -46 0 -48 -13 -31 -13 17 -15 18 -15 3 0 -9 -4 -17 -10 -17 -12 0 -14 73 -3 84 5 4 13 -5 20 -21 l11 -28 5 30z m71 12 c26 -19 18 -71 -11 -75 -21 -3 -23 1 -23 42 0 49 5 54 34 33z m115 -8 c-11 -6 -11 -11 -1 -21 19 -19 15 -48 -8 -48 -11 0 -20 4 -20 10 0 5 7 7 15 4 20 -8 19 5 -1 28 -14 14 -14 20 -4 33 7 8 17 12 22 9 6 -4 5 -10 -3 -15z m75 12 c4 -5 0 -12 -6 -15 -10 -5 -10 -7 1 -12 11 -5 11 -8 0 -14 -10 -7 -10 -11 0 -24 12 -14 10 -16 -8 -16 -18 0 -21 6 -21 45 0 33 4 45 14 45 8 0 17 -4 20 -9z m59 -73 c7 -5 3 -8 -10 -8 -20 0 -23 5 -23 38 0 52 14 64 18 16 2 -21 9 -42 15 -46z m60 0 c8 -5 6 -8 -5 -8 -15 0 -18 8 -16 48 1 47 1 47 5 7 3 -22 10 -43 16 -47z m71 73 c4 -5 0 -12 -6 -15 -10 -5 -10 -7 1 -12 11 -5 11 -8 0 -14 -10 -7 -10 -11 0 -24 12 -14 10 -16 -8 -16 -18 0 -21 6 -21 45 0 33 4 45 14 45 8 0 17 -4 20 -9z m127 -9 c-9 -3 -8 -9 5 -23 19 -22 12 -49 -13 -49 -14 0 -15 2 -5 9 11 7 11 12 1 28 -14 24 -5 58 13 47 9 -6 9 -9 -1 -12z m112 -32 l4 -35 1 38 c1 20 7 37 13 37 6 0 9 -16 7 -37 -2 -30 -7 -38 -23 -38 -17 0 -21 8 -23 45 -4 53 14 45 21 -10z m87 28 c0 13 4 20 10 17 12 -7 14 -85 2 -85 -5 0 -14 10 -20 23 l-11 22 0 -22 c-1 -13 -5 -23 -9 -23 -5 0 -8 10 -6 23 1 12 3 33 4 47 l1 25 14 -25 14 -25 1 23z m60 -23 c0 -25 -4 -45 -10 -45 -11 0 -14 73 -3 83 11 12 13 8 13 -38z m70 35 c0 -5 -4 -10 -9 -10 -5 0 -8 -16 -7 -35 1 -19 -2 -35 -6 -35 -5 0 -8 16 -8 35 0 21 -5 35 -12 35 -9 0 -8 4 2 10 20 13 40 13 40 0z m60 1 c0 -5 -6 -12 -12 -15 -10 -5 -10 -7 0 -12 10 -5 10 -9 1 -20 -8 -10 -8 -14 0 -14 6 0 11 -4 11 -10 0 -5 -9 -10 -20 -10 -17 0 -20 7 -20 38 0 21 3 42 7 45 10 10 33 8 33 -2z m-1865 -22 c-4 -5 -1 -9 4 -9 6 0 11 7 11 15 0 8 5 15 10 15 6 0 10 -18 10 -40 0 -22 -4 -40 -10 -40 -5 0 -10 7 -10 15 0 21 -18 19 -23 -2 -3 -10 -5 1 -6 25 -1 27 3 41 9 37 6 -4 8 -11 5 -16z m162 -18 c-1 -30 -4 -37 -13 -30 -8 7 -14 6 -17 -3 -3 -7 -6 6 -6 30 -1 35 2 42 18 42 17 0 20 -6 18 -39z m234 -21 c5 0 9 14 9 30 0 17 5 30 10 30 11 0 13 -39 4 -64 -3 -9 -15 -16 -25 -16 -16 0 -19 7 -17 43 1 36 2 38 5 10 2 -18 8 -33 14 -33z m425 33 c3 -16 7 -33 9 -39 2 -7 -7 -11 -21 -10 -25 1 -29 13 -18 54 9 30 22 28 30 -5z m600 16 c3 -6 1 -16 -4 -21 -8 -8 -8 -17 -1 -30 6 -12 6 -18 -1 -18 -5 0 -10 6 -11 13 0 10 -2 10 -6 0 -10 -27 -23 -11 -23 27 0 33 3 40 19 40 11 0 23 -5 27 -11z" fill="#00A8C6"/>
<path d="M3212 3673 c-31 -15 -82 -70 -131 -141 l-23 -33 37 -44 c35 -43 39 -45 89 -45 57 0 82 15 66 40 -16 25 -11 59 10 72 16 11 20 24 20 75 0 43 -5 66 -16 77 -8 9 -16 16 -17 16 -1 0 -17 -8 -35 -17z" fill="#00A8C6"/>
<path d="M2770 3614 c-14 -36 -3 -79 48 -196 14 -32 28 -58 32 -58 3 0 29 7 57 15 44 13 53 20 78 67 l28 52 -58 52 c-58 53 -129 94 -159 94 -9 0 -21 -12 -26 -26z" fill="#00A8C6"/>
<path d="M3018 3427 l-15 -32 38 3 c45 5 47 11 16 40 l-23 22 -16 -33z" fill="#00A8C6"/>
<path d="M3187 3370 c-12 -4 -11 -11 8 -38 l23 -33 11 32 c6 18 11 35 11 38 0 8 -33 9 -53 1z" fill="#00A8C6"/>
<path d="M3266 3326 c-20 -68 -20 -63 6 -114 26 -49 31 -49 130 -12 63 23 116 56 132 83 26 41 -48 79 -181 91 l-71 7 -16 -55z" fill="#00A8C6"/>
<path d="M3032 3361 c-50 -9 -52 -11 -81 -79 l-22 -53 42 -59 c22 -32 46 -57 52 -55 7 2 37 6 66 10 30 3 56 7 57 8 1 1 14 29 29 62 l26 59 -39 56 c-42 59 -53 64 -130 51z m85 -63 c33 -31 32 -90 -3 -117 -66 -52 -156 12 -124 89 7 17 20 35 29 40 28 16 74 11 98 -12z" fill="#00A8C6"/>
<path d="M2882 3331 c-10 -6 -11 -13 -1 -34 14 -31 23 -28 37 13 9 26 9 30 -6 30 -9 0 -23 -4 -30 -9z" fill="#00A8C6"/>
<path d="M2798 3305 c-35 -42 -42 -46 -62 -40 -36 11 -57 7 -98 -20 -53 -35 -64 -64 -33 -91 25 -23 119 -44 196 -44 l45 0 18 55 17 55 -28 50 c-30 54 -36 58 -55 35z" fill="#00A8C6"/>
<path d="M3212 3185 c-17 -37 -15 -43 13 -37 34 6 37 13 16 40 l-17 23 -12 -26z" fill="#00A8C6"/>
<path d="M2896 3148 c-9 -36 -8 -38 30 -38 l35 0 -21 30 c-26 36 -36 38 -44 8z" fill="#00A8C6"/>
<path d="M3207 3107 c-30 -10 -44 -23 -67 -63 -16 -29 -26 -54 -23 -58 4 -3 18 -6 33 -6 32 0 50 -17 50 -46 0 -31 59 -74 109 -81 37 -5 41 -3 47 21 9 38 -3 91 -41 174 -36 78 -40 80 -108 59z" fill="#00A8C6"/>
<path d="M3068 3081 l-27 -6 23 -26 23 -27 17 28 c25 43 22 45 -36 31z" fill="#00A8C6"/>
<path d="M2861 3024 c-18 -72 -24 -166 -12 -196 22 -57 88 -22 166 86 25 35 45 67 45 70 0 4 -15 25 -32 46 -32 38 -35 40 -94 40 l-62 0 -11 -46z" fill="#00A8C6"/>
<path d="M2247 2410 c-11 -27 -27 -95 -27 -112 0 -13 8 -18 25 -18 22 0 25 4 24 33 0 50 -15 114 -22 97z" fill="#00A8C6"/>
<path d="M4170 2430 c0 -42 3 -50 18 -50 22 0 52 30 52 53 0 21 -27 47 -51 47 -16 0 -19 -7 -19 -50z" fill="#00A8C6"/>
<path d="M4170 2261 c0 -57 1 -59 25 -57 37 5 55 25 55 60 0 39 -15 56 -52 56 -28 0 -28 -1 -28 -59z" fill="#00A8C6"/>
<path d="M2480 2414 l0 -56 33 7 c42 9 57 22 57 50 0 29 -30 55 -63 55 -26 0 -27 -2 -27 -56z" fill="#00A8C6"/>
<path d="M2800 1880 c0 -5 5 -10 11 -10 5 0 7 5 4 10 -3 6 -8 10 -11 10 -2 0 -4 -4 -4 -10z" fill="#00A8C6"/>
<path d="M3140 1865 c0 -14 5 -25 10 -25 6 0 10 11 10 25 0 14 -4 25 -10 25 -5 0 -10 -11 -10 -25z" fill="#00A8C6"/>
<path d="M2330 1880 c0 -5 5 -10 11 -10 5 0 7 5 4 10 -3 6 -8 10 -11 10 -2 0 -4 -4 -4 -10z" fill="#00A8C6"/>
</g>
</svg>